# xmcd CD database file
#
# Track frame offsets:
#	150
#	13518
#	32101
#	54127
#	69544
#	89150
#	105586
#	124763
#	144661
#	164594
#	182204
#	200021
#	217635
#	238264
#	257329
#	278465
#	290021
#	307274
#
# Disc length: 4429 seconds
#
# Revision: 2
# Processed by: cddbd v1.4b41PL1 Copyright (c) Steve Scherf et al.
# Submitted via: Feurio! 1.50.2ß - http://www.feurio.com
#
DISCID=0c114b12
DTITLE=Various Artist - Herzschmerz 2 CD 2
DYEAR=1900
DGENRE=
TTITLE0=Latin Quarter - Cora
TTITLE1=Natalie Imbruglia - Torn
TTITLE2=Take That - Babe
TTITLE3=Skunk anansie - Hedonism
TTITLE4=Poison - Every Rose Has Its Thorn
TTITLE5=Heart - Alone
TTITLE6=Gary Moore - Empty Rooms
TTITLE7=Mr. Big - Just Take My Heart
TTITLE8=East 17 - Stay Another Day
TTITLE9=Den Harrow - Don't Break My Heart
TTITLE10=Dune - Dune - Who Wants To Live forev
TTITLE11=Rednex - Wish you were here
TTITLE12=Dee C Lee - See The Day
TTITLE13=Midge Ure - Breathe
TTITLE14=Cook Da Books - Your Eyes
TTITLE15=Joe Jackson - Breaking Us In Two
TTITLE16=Alphaville - Forever Young
TTITLE17=Cutting Crew - I've Been In Love Before
EXTD=
EXTT0=
EXTT1=
EXTT2=
EXTT3=
EXTT4=
EXTT5=
EXTT6=
EXTT7=
EXTT8=
EXTT9=
EXTT10=
EXTT11=
EXTT12=
EXTT13=
EXTT14=
EXTT15=
EXTT16=
EXTT17=
PLAYORDER=
